<svg width="192" height="192" fill="none" xmlns="http://www.w3.org/2000/svg"><g clip-path="url(#clip0_203_6)"><style>@media (prefers-color-scheme:dark){.a{fill:#f8fafc}}</style><path class="a" d="m6.03 48.52-7.2-2.16V44.2h17.28c4.993 0 9.073 1.152 12.24 3.456 3.169 2.208 5.569 5.136 7.2 8.784l25.489 58.032L84.51 50.68l-10.8-4.32V44.2h26.64v2.16l-11.52 4.32-35.28 95.76h-4.32L6.03 48.52Zm98.647 94.32 8.64-2.16V48.52l-8.64-2.16V44.2h77.04v25.92h-4.32c-1.824-1.44-3.408-3.264-4.752-5.472-3.072-5.184-4.608-10.8-4.608-16.848h-30.96v45.36h16.56a31.927 31.927 0 0 1 3.744-10.224 28.358 28.358 0 0 1 2.736-4.176h4.32v32.4h-4.32a28.358 28.358 0 0 1-2.736-4.176 31.927 31.927 0 0 1-3.744-10.224h-16.56v44.64h33.84c0-6.048 1.536-11.664 4.608-16.848 1.344-2.208 2.928-4.032 4.752-5.472h4.32V145h-79.92v-2.16Z" fill="#0F172A"/></g><defs><clipPath id="clip0_203_6"><path fill="#fff" d="M0 0h192v192H0z"/></clipPath></defs></svg>