<svg width="34" height="31" viewBox="0 0 34 31" fill="none" xmlns="http://www.w3.org/2000/svg">
<path d="M27.2503 16.6276C26.9957 17.4867 26.4962 18.2529 25.813 18.8326C25.1299 19.4123 24.2925 19.7804 23.4035 19.8918C22.5145 20.0032 21.6122 19.8531 20.8071 19.4599C20.002 19.0666 19.329 18.4473 18.8703 17.6776C18.5635 17.1584 18.3623 16.5837 18.2782 15.9865C18.1941 15.3893 18.2288 14.7814 18.3803 14.1976L18.8703 12.3476C19.1703 11.2076 18.4803 10.0476 17.3403 9.74764L15.4903 9.26764C14.8975 9.11501 14.3413 8.84508 13.8545 8.47382C13.3678 8.10256 12.9605 7.63749 12.6565 7.1061C12.3526 6.57471 12.1583 5.98779 12.0851 5.38003C12.0119 4.77227 12.0613 4.15599 12.2303 3.56764C12.5942 2.44412 13.3763 1.50362 14.4146 0.940898C15.4529 0.378181 16.6679 0.236363 17.8079 0.544817C18.9479 0.853271 19.9256 1.58836 20.5385 2.59786C21.1514 3.60735 21.3525 4.8139 21.1003 5.96764L20.6103 7.82764C20.3103 8.96764 21.0003 10.1276 22.1403 10.4276L23.9903 10.9076C24.5828 11.0626 25.1384 11.3344 25.6244 11.7069C26.1105 12.0795 26.5173 12.5453 26.8209 13.0772C27.1246 13.609 27.319 14.1961 27.3927 14.8041C27.4664 15.4121 27.418 16.0286 27.2503 16.6176V16.6276ZM32.6503 2.50764C32.3652 1.94943 31.969 1.45538 31.4861 1.05582C31.0031 0.656249 30.4436 0.359594 29.8419 0.184062C29.2402 0.00852874 28.609 -0.0421789 27.9869 0.0350513C27.3649 0.112281 26.7652 0.31582 26.2247 0.633173C25.6842 0.950526 25.2142 1.375 24.8437 1.88053C24.4731 2.38607 24.2098 2.962 24.0698 3.57298C23.9299 4.18396 23.9163 4.81709 24.0299 5.43352C24.1434 6.04994 24.3818 6.63665 24.7303 7.15764C25.3716 8.15825 26.3752 8.87184 27.531 9.14887C28.6867 9.42589 29.9048 9.24485 30.93 8.64368C31.9552 8.04252 32.708 7.06788 33.0305 5.92402C33.3531 4.78016 33.2204 3.55584 32.6603 2.50764H32.6503ZM18.1503 21.4476L16.3003 20.9676C15.7536 20.8241 15.2859 20.4702 14.9992 19.9831C14.7126 19.496 14.6303 18.9152 14.7703 18.3676L15.2603 16.5176C15.5603 15.3176 15.3803 14.1176 14.8203 13.1176L14.7603 13.0176L14.6903 12.9076C14.0731 11.9028 13.0913 11.1754 11.9503 10.8776L10.1003 10.3876C9.55361 10.2441 9.08589 9.8902 8.79924 9.40308C8.51259 8.91596 8.43028 8.33522 8.57029 7.78764L9.05029 5.93764C9.28067 5.05684 9.2445 4.1275 8.94637 3.26727C8.64823 2.40705 8.10154 1.65464 7.37551 1.10531C6.64949 0.55599 5.77678 0.234461 4.8679 0.181438C3.95903 0.128415 3.05485 0.346285 2.26988 0.807459C1.4849 1.26863 0.854425 1.95237 0.458284 2.77209C0.0621434 3.59181 -0.0818457 4.51065 0.0445497 5.41225C0.170945 6.31386 0.56204 7.15769 1.16831 7.83688C1.77458 8.51607 2.56877 9.00009 3.45029 9.22764L5.30029 9.70764C5.84698 9.85113 6.3147 10.2051 6.60135 10.6922C6.888 11.1793 6.9703 11.76 6.83029 12.3076L6.34029 14.1576C6.18883 14.7414 6.15414 15.3493 6.23823 15.9465C6.32232 16.5437 6.52352 17.1184 6.83029 17.6376L6.84029 17.6576L6.85029 17.6776C7.15457 18.1978 7.55853 18.6529 8.03901 19.0167C8.5195 19.3805 9.06705 19.6459 9.65029 19.7976L11.5003 20.2876C12.047 20.4311 12.5147 20.7851 12.8014 21.2722C13.088 21.7593 13.1703 22.34 13.0303 22.8876L12.5503 24.7376C12.3951 25.3281 12.3595 25.9437 12.4457 26.5481C12.5318 27.1525 12.7379 27.7336 13.0519 28.2572C13.3659 28.7809 13.7814 29.2364 14.274 29.5971C14.7666 29.9578 15.3263 30.2164 15.9203 30.3576C17.0739 30.5769 18.2677 30.3466 19.2571 29.714C20.2464 29.0815 20.9564 28.0945 21.2415 26.9554C21.5266 25.8162 21.3652 24.6112 20.7905 23.5871C20.2158 22.5631 19.2712 21.7977 18.1503 21.4476Z" fill="#00D876"/>
</svg>
