<svg width="72" height="72" viewBox="0 0 72 72" fill="none" xmlns="http://www.w3.org/2000/svg">
<path d="M14.2944 7.06128H6.3308C5.04354 7.06128 4 8.08922 4 9.35724C4 10.6253 5.04354 11.6532 6.3308 11.6532H14.2944C15.5817 11.6532 16.6252 10.6253 16.6252 9.35724C16.6252 8.08922 15.5817 7.06128 14.2944 7.06128Z" fill="#3f3f46"/>
<path d="M26.6919 53.9816L16.6113 8.81766C16.3349 7.57922 15.0916 6.79599 13.8343 7.06828C12.5771 7.34057 11.782 8.56526 12.0584 9.80371L22.139 54.9676C22.4155 56.2061 23.6587 56.9893 24.916 56.717C26.1732 56.4447 26.9683 55.22 26.6919 53.9816Z" fill="#3f3f46"/>
<path d="M65.6692 52.3645H24.649C23.3617 52.3645 22.3182 53.3924 22.3182 54.6605C22.3182 55.9285 23.3617 56.9564 24.649 56.9564H65.6692C66.9565 56.9564 68 55.9285 68 54.6605C68 53.3924 66.9565 52.3645 65.6692 52.3645Z" fill="#3f3f46"/>
<path d="M30.9014 68C33.1541 68 34.9803 66.2011 34.9803 63.982C34.9803 61.763 33.1541 59.9641 30.9014 59.9641C28.6486 59.9641 26.8224 61.763 26.8224 63.982C26.8224 66.2011 28.6486 68 30.9014 68Z" fill="#3f3f46"/>
<path d="M55.9575 68C58.2102 68 60.0364 66.2011 60.0364 63.982C60.0364 61.763 58.2102 59.9641 55.9575 59.9641C53.7048 59.9641 51.8786 61.763 51.8786 63.982C51.8786 66.2011 53.7048 68 55.9575 68Z" fill="#3f3f46"/>
<path fill-rule="evenodd" clip-rule="evenodd" d="M32.5524 49.3453L22.4522 4H24.783L34.9181 49.3606L32.5524 49.3453Z" fill="#3f3f46"/>
<path d="M26.7254 4.34629H22.7649C22.6823 4.34629 22.6031 4.3141 22.5445 4.25674C22.4859 4.19939 22.4527 4.12153 22.4522 4.04016V4.04016H26.7254V4.34246V4.34629Z" fill="#3f3f46"/>
<path d="M35.0774 4.34629H31.117C31.0344 4.34629 30.9551 4.3141 30.8965 4.25674C30.8379 4.19939 30.8048 4.12153 30.8043 4.04016V4.04016H35.0774V4.34246V4.34629Z" fill="#3f3f46"/>
<path fill-rule="evenodd" clip-rule="evenodd" d="M40.9044 49.3453L30.8043 4H33.1351L43.2702 49.3606L40.9044 49.3453Z" fill="#3f3f46"/>
<path d="M43.4295 4.34629H39.469C39.3864 4.34629 39.3072 4.3141 39.2486 4.25674C39.19 4.19939 39.1568 4.12153 39.1563 4.04016V4.04016H43.4295V4.34246V4.34629Z" fill="#3f3f46"/>
<path fill-rule="evenodd" clip-rule="evenodd" d="M49.2565 49.3453L39.1563 4H41.4871L51.6222 49.3606L49.2565 49.3453Z" fill="#3f3f46"/>
<path d="M51.7815 4.34629H47.8211C47.7385 4.34629 47.6592 4.3141 47.6006 4.25674C47.542 4.19939 47.5089 4.12153 47.5084 4.04016V4.04016H51.7815V4.34246V4.34629Z" fill="#3f3f46"/>
<path fill-rule="evenodd" clip-rule="evenodd" d="M57.6085 49.3453L47.5084 4H49.8392L59.9743 49.3606L57.6085 49.3453Z" fill="#3f3f46"/>
</svg>
