<svg xmlns="http://www.w3.org/2000/svg" width="47" height="35" viewBox="0 0 47 35">
    <path fill="#3f3f46" fill-rule="evenodd" d="M46.136 1.004l-4.768 29.214C40.843 33.938 39.15 35 36.115 35h-3.152c-2.626 0-4.027-1.299-4.844-4.723l-4.612-14.685c-.116-.532-.116-.65-.35-.65-.233 0-.291.118-.408.65l-4.612 14.685C17.32 33.701 15.92 35 13.293 35h-3.151c-3.036 0-4.73-1.063-5.254-4.782L0 1.004V.827C0 .295.467 0 .992 0H7.18c.467 0 .934.413.992 1.063l3.604 25.908c.059.532.059.886.292.886.234 0 .234-.354.35-.886l5.02-15.925c.35-1.417 1.167-2.656 3.677-2.656h4.028c2.51 0 3.326 1.24 3.677 2.656l5.02 15.925c.116.532.116.886.35.886.233 0 .233-.354.292-.886l3.483-25.908c.06-.65.526-1.063.992-1.063h6.188c.526 0 .992.295.992.827v.177z"/>
</svg>
